<?xml version="1.0" encoding="utf-8"?>
<svg id="master-artboard" viewBox="0 0 272.50653076171875 253.79957580566406" version="1.1" xmlns="http://www.w3.org/2000/svg" x="0px" y="0px" style="enable-background:new 0 0 1400 980;" width="272.50653076171875px" height="253.79957580566406px" xmlns:xlink="http://www.w3.org/1999/xlink"><rect id="ee-background" x="0" y="0" width="272.50653076171875" height="253.79957580566406" style="fill: white; fill-opacity: 0; pointer-events: none;"/><defs><path id="text-path-0" d="M 778.8464965820312 213.4612274169922 A 100 18 0 0 1 988.3533935546875 213.4612274169922 A 100 18 0 0 1 778.8464965820312 213.4612274169922 Z" style="fill: none; stroke: red; stroke-width: 2;"/><path id="text-path-1" d="M 664.5464477539062 37.96122741699219 A 100 19 0 0 1 876.5812377929688 37.96122741699219 A 100 19 0 0 1 664.5464477539062 37.96122741699219" style="fill: none; stroke: red; stroke-width: 2;"/><path id="text-path-2" d="M 765.3650512695312 211.70851135253906 A 100 17 0 0 1 991.5017700195312 211.70851135253906 A 100 17 0 0 1 765.3650512695312 211.70851135253906" style="fill: none; stroke: red; stroke-width: 2;"/><path id="path-1" d="M 765.3650512695312 211.70851135253906 A 100 17 0 0 1 991.5017700195312 211.70851135253906 A 100 17 0 0 1 765.3650512695312 211.70851135253906" style="fill: none; stroke: red; stroke-width: 2;"/><path d="M53.43 255.91C52.22 255.31 50.91 255.31 49.7 255.91C44.96 258.27 7.05 277.19 2.31 279.55C0.91 280.26 0 281.77 0 283.28C0 284.89 0.91 286.29 2.31 287C7.05 289.37 44.96 308.37 49.7 310.74C50.31 311.05 50.91 311.15 51.61 311.15C52.22 311.15 52.92 311.05 53.53 310.74C58.27 308.38 96.18 289.46 100.91 287.1C102.32 286.4 103.23 284.99 103.23 283.38C103.13 281.77 102.22 280.26 100.81 279.55C91.34 274.82 58.16 258.27 53.43 255.91ZM13.48 283.28L51.51 264.26L89.55 283.28L51.51 302.39L13.48 283.28Z" id="i1s3tJaku0"/><linearGradient id="gradientaVSZK1UW4" gradientUnits="userSpaceOnUse" x1="-14.74" y1="283.32" x2="660.58" y2="283.32"><stop style="stop-color: #da8cff;stop-opacity: 1" offset="0.1502404%"/><stop style="stop-color: #9a55ff;stop-opacity: 1" offset="100%"/></linearGradient><path d="M96.99 326.94C93.96 328.46 78.8 336.08 51.51 349.78C24.23 336.08 9.07 328.46 6.04 326.94C4.02 325.94 1.51 326.74 0.4 328.85C-0.6 330.87 0.2 333.38 2.31 334.49C7.05 336.85 44.96 355.77 49.7 358.13C50.31 358.43 50.91 358.53 51.61 358.53C52.22 358.53 52.92 358.43 53.53 358.13C58.27 355.77 96.18 336.85 100.91 334.49C102.83 333.38 103.63 330.87 102.63 328.85C101.62 326.84 99.1 325.94 96.99 326.94Z" id="c8qMfSGNU7"/><linearGradient id="gradientadoy0fTQ6" gradientUnits="userSpaceOnUse" x1="-14.74" y1="342.54" x2="660.58" y2="342.54"><stop style="stop-color: #da8cff;stop-opacity: 1" offset="0.1502404%"/><stop style="stop-color: #9a55ff;stop-opacity: 1" offset="100%"/></linearGradient><path d="M96.99 303.2C93.96 304.72 78.8 312.33 51.51 326.04C24.23 312.39 9.07 304.81 6.04 303.3C4.02 302.29 1.51 303.1 0.4 305.21C-0.6 307.22 0.2 309.74 2.31 310.84C7.05 313.21 44.96 332.12 49.7 334.49C50.31 334.79 50.91 334.89 51.61 334.89C52.22 334.89 52.92 334.79 53.53 334.49C58.25 332.11 96.09 313.12 100.81 310.74C102.83 309.74 103.63 307.22 102.63 305.11C101.62 303.1 99.1 302.19 96.99 303.2Z" id="d9W5YWaMc"/><linearGradient id="gradientd1XmYi32d" gradientUnits="userSpaceOnUse" x1="-14.74" y1="318.86" x2="660.58" y2="318.86" gradientTransform="matrix(0.792198056049313, -0.0027342066356834207, 0.003451422367779138, 0.9999941062836873, -4.163543779906643, -0.03844458155418329)"><stop style="stop-color: #da8cff;stop-opacity: 1" offset="0.1502404%"/><stop style="stop-color: #9a55ff;stop-opacity: 1" offset="100%"/></linearGradient><path d="M 246 512.0139770507812 C 248.6599884033203 512.0139770507812 250.67666625976562 511.2939453125 252.04998779296875 509.85394287109375 C 253.42999267578125 508.40728759765625 254.1199951171875 506.283935546875 254.1199951171875 503.48394775390625 L 254.1199951171875 474.9239501953125 L 270.1300048828125 474.9239501953125 L 270.1300048828125 503.48394775390625 C 270.1300048828125 505.98394775390625 269.79998779296875 508.24395751953125 269.1399841308594 510.2639465332031 C 268.4866638183594 512.283935546875 267.586669921875 514.0872802734375 266.44000244140625 515.6739501953125 C 265.2933349609375 517.2539672851562 263.9466552734375 518.6239624023438 262.3999938964844 519.783935546875 C 260.85333251953125 520.937255859375 259.1833190917969 521.890625 257.3899841308594 522.6439208984375 C 255.60333251953125 523.390625 253.73666381835938 523.9439697265625 251.7899932861328 524.303955078125 C 249.84999084472656 524.6639404296875 247.9199981689453 524.8439331054688 246 524.8439331054688 C 239.413330078125 524.8439331054688 233.8333282470703 523.0405883789062 229.25999450683594 519.4339599609375 C 224.3333282470703 515.6005859375 221.8699951171875 510.283935546875 221.8699951171875 503.48394775390625 L 221.8699951171875 474.9239501953125 L 237.88998413085938 474.9239501953125 L 237.88998413085938 503.48394775390625 C 237.88998413085938 509.1706237792969 240.59332275390625 512.0139770507812 246 512.0139770507812 ZM 273.5951843261719 474.9239501953125 L 290.0251770019531 474.9239501953125 L 290.0251770019531 494.8239440917969 L 295.1551818847656 494.8239440917969 L 304.585205078125 474.9239501953125 L 321.01519775390625 474.9239501953125 L 321.01519775390625 478.11395263671875 L 309.7851867675781 499.12396240234375 L 322.61517333984375 520.5439453125 L 322.61517333984375 523.7339477539062 L 305.3451843261719 523.7339477539062 L 294.87518310546875 504.3239440917969 L 290.0251770019531 504.3239440917969 L 290.0251770019531 523.7339477539062 L 273.5951843261719 523.7339477539062 L 273.5951843261719 474.9239501953125 ZM 328.8118896484375 474.9239501953125 L 343.5718994140625 474.9239501953125 L 355.7818908691406 498.6339416503906 L 367.701904296875 474.9239501953125 L 382.4718933105469 474.9239501953125 L 382.4718933105469 523.7339477539062 L 367.701904296875 523.7339477539062 L 367.701904296875 497.6639404296875 L 358.69189453125 514.7239379882812 L 352.6618957519531 514.7239379882812 L 343.5718994140625 497.6639404296875 L 343.5718994140625 523.7339477539062 L 328.8118896484375 523.7339477539062 L 328.8118896484375 474.9239501953125 ZM 421.11065673828125 485.2539367675781 L 410.9906311035156 485.2539367675781 L 410.9906311035156 474.9239501953125 L 447.8106384277344 474.9239501953125 L 447.8106384277344 485.2539367675781 L 437.6806335449219 485.2539367675781 L 437.6806335449219 523.7339477539062 L 421.11065673828125 523.7339477539062 L 421.11065673828125 485.2539367675781 ZM 504.4090270996094 523.5939331054688 C 501.3823547363281 524.4273071289062 499.19903564453125 524.8439331054688 497.8590393066406 524.8439331054688 C 489.28570556640625 524.8439331054688 483.9023742675781 520.937255859375 481.70904541015625 513.1239624023438 L 479.759033203125 505.22393798828125 L 476.43902587890625 505.22393798828125 L 476.43902587890625 523.7339477539062 L 460.9090270996094 523.7339477539062 L 460.9090270996094 474.9239501953125 L 482.6090393066406 474.9239501953125 C 485.4290466308594 474.9239501953125 488.0757141113281 475.2406005859375 490.5490417480469 475.87396240234375 C 493.0223693847656 476.5072937011719 495.1756896972656 477.43060302734375 497.009033203125 478.6439514160156 C 498.8490295410156 479.8572692871094 500.29571533203125 481.35394287109375 501.3490295410156 483.1339416503906 C 502.39569091796875 484.9139404296875 502.9190368652344 486.9606018066406 502.9190368652344 489.2739562988281 C 502.9190368652344 490.9872741699219 502.7056884765625 492.51727294921875 502.2790222167969 493.86395263671875 C 501.85235595703125 495.21728515625 501.2356872558594 496.43060302734375 500.42901611328125 497.5039367675781 C 499.6156921386719 498.5839538574219 498.6257019042969 499.53729248046875 497.45904541015625 500.36395263671875 C 496.2923583984375 501.197265625 494.9690246582031 501.9372863769531 493.4890441894531 502.5839538574219 L 493.80902099609375 504.283935546875 C 493.8757019042969 504.6772766113281 493.9423828125 505.0139465332031 494.009033203125 505.2939453125 C 494.0823669433594 505.5672912597656 494.1423645019531 505.7972717285156 494.18902587890625 505.98394775390625 L 494.56903076171875 507.47393798828125 C 494.8423767089844 508.35394287109375 495.1590270996094 509.1006164550781 495.51904296875 509.7139587402344 C 495.8790283203125 510.3272705078125 496.335693359375 510.8239440917969 496.8890380859375 511.2039489746094 C 497.4423828125 511.5839538574219 498.1290283203125 511.8606262207031 498.94903564453125 512.033935546875 C 499.76904296875 512.207275390625 500.76904296875 512.2939453125 501.94903564453125 512.2939453125 C 502.1357116699219 512.2939453125 502.432373046875 512.2706298828125 502.83905029296875 512.2239379882812 C 503.2390441894531 512.1773071289062 503.7623596191406 512.1072998046875 504.4090270996094 512.0139770507812 L 504.4090270996094 523.5939331054688 M 488.70904541015625 489.9639587402344 C 488.70904541015625 489.06396484375 488.51904296875 488.32061767578125 488.1390380859375 487.73394775390625 C 487.759033203125 487.140625 487.23236083984375 486.6772766113281 486.55902099609375 486.34393310546875 C 485.8857116699219 486.0106201171875 485.0990295410156 485.7806091308594 484.19903564453125 485.6539306640625 C 483.2990417480469 485.52728271484375 482.32904052734375 485.4639587402344 481.2890319824219 485.4639587402344 L 476.43902587890625 485.4639587402344 L 476.43902587890625 495.23394775390625 L 479.1390380859375 495.23394775390625 L 481.4290466308594 495.1339416503906 C 482.32904052734375 495.06060791015625 483.2123718261719 494.9372863769531 484.07904052734375 494.7639465332031 C 484.9457092285156 494.5906066894531 485.7257080078125 494.3139343261719 486.4190368652344 493.9339599609375 C 487.11236572265625 493.553955078125 487.6690368652344 493.0472717285156 488.0890197753906 492.4139404296875 C 488.50238037109375 491.7739562988281 488.70904541015625 490.957275390625 488.70904541015625 489.9639587402344 ZM 512.1742553710938 474.9239501953125 L 528.5342407226562 474.9239501953125 L 528.5342407226562 523.7339477539062 L 512.1742553710938 523.7339477539062 L 512.1742553710938 474.9239501953125 ZM 539.7999267578125 474.9239501953125 L 555.119873046875 474.9239501953125 L 555.119873046875 513.2639770507812 L 572.0399169921875 513.2639770507812 L 572.0399169921875 523.7339477539062 L 539.7999267578125 523.7339477539062 L 539.7999267578125 474.9239501953125 ZM 584.71826171875 499.3939514160156 C 584.71826171875 492.3472900390625 586.9583129882812 486.40728759765625 591.4382934570312 481.5739440917969 C 596.2249755859375 476.4206237792969 602.6983032226562 473.84393310546875 610.8582763671875 473.84393310546875 C 614.8316040039062 473.84393310546875 618.4249267578125 474.4872741699219 621.6383056640625 475.7739562988281 C 624.8516235351562 477.053955078125 627.5916137695312 478.8272705078125 629.8582763671875 481.09393310546875 C 632.1182861328125 483.3606262207031 633.8616333007812 486.0572814941406 635.0883178710938 489.1839599609375 C 636.31494140625 492.3172912597656 636.9282836914062 495.7206115722656 636.9282836914062 499.3939514160156 C 636.9282836914062 501.61395263671875 636.6749267578125 503.78729248046875 636.1682739257812 505.9139404296875 C 635.6549682617188 508.0406188964844 634.8983154296875 510.0472717285156 633.8983154296875 511.9339599609375 C 632.8916015625 513.81396484375 631.6483154296875 515.5473022460938 630.1682739257812 517.1339721679688 C 628.6882934570312 518.7139282226562 626.9816284179688 520.0772705078125 625.0482788085938 521.2239379882812 C 623.1216430664062 522.3639526367188 620.9749755859375 523.2539672851562 618.6082763671875 523.8939208984375 C 616.2349853515625 524.5272827148438 613.651611328125 524.8439331054688 610.8582763671875 524.8439331054688 C 607.9916381835938 524.8439331054688 605.3616333007812 524.5206298828125 602.96826171875 523.8739624023438 C 600.574951171875 523.227294921875 598.4082641601562 522.323974609375 596.46826171875 521.1639404296875 C 594.5283203125 520.0106201171875 592.824951171875 518.6372680664062 591.3582763671875 517.0439453125 C 589.8916015625 515.4506225585938 588.6649780273438 513.7106323242188 587.6782836914062 511.8239440917969 C 586.6983032226562 509.9439392089844 585.9583129882812 507.95062255859375 585.4583129882812 505.84393310546875 C 584.9649658203125 503.74395751953125 584.71826171875 501.59393310546875 584.71826171875 499.3939514160156 M 610.8582763671875 511.9439392089844 C 612.6849365234375 511.9439392089844 614.23828125 511.5572814941406 615.518310546875 510.783935546875 C 616.804931640625 510.0106201171875 617.8582763671875 509.01727294921875 618.6782836914062 507.803955078125 C 619.498291015625 506.5906066894531 620.0982666015625 505.23394775390625 620.478271484375 503.73394775390625 C 620.8582763671875 502.227294921875 621.0482788085938 500.7572937011719 621.0482788085938 499.3239440917969 C 621.0482788085938 497.457275390625 620.8116455078125 495.74395751953125 620.3383178710938 494.1839599609375 C 619.8649291992188 492.62396240234375 619.181640625 491.2706298828125 618.2882690429688 490.12396240234375 C 617.401611328125 488.977294921875 616.3283081054688 488.07061767578125 615.0682983398438 487.4039306640625 C 613.8082885742188 486.7306213378906 612.4049682617188 486.3606262207031 610.8582763671875 486.2939453125 C 609.0049438476562 486.3406066894531 607.431640625 486.7572937011719 606.1383056640625 487.5439453125 C 604.844970703125 488.33062744140625 603.7882690429688 489.3406066894531 602.96826171875 490.5739440917969 C 602.1483154296875 491.8072814941406 601.5482788085938 493.1939392089844 601.1682739257812 494.73394775390625 C 600.7882690429688 496.2739562988281 600.5982666015625 497.803955078125 600.5982666015625 499.3239440917969 C 600.5982666015625 501.130615234375 600.8349609375 502.8006286621094 601.3082885742188 504.3339538574219 C 601.7816162109375 505.87396240234375 602.4616088867188 507.2039489746094 603.3482666015625 508.3239440917969 C 604.2416381835938 509.4439392089844 605.3216552734375 510.3272705078125 606.5883178710938 510.97393798828125 C 607.8616333007812 511.62060546875 609.2849731445312 511.9439392089844 610.8582763671875 511.9439392089844 ZM 676.0250244140625 488.37396240234375 C 671.9116821289062 487.033935546875 668.675048828125 486.36395263671875 666.3150024414062 486.36395263671875 C 664.5816650390625 486.36395263671875 663.0516967773438 486.7206115722656 661.7250366210938 487.4339599609375 C 660.3917236328125 488.1539306640625 659.2750244140625 489.10394287109375 658.375 490.283935546875 C 657.4750366210938 491.457275390625 656.7950439453125 492.8139343261719 656.3350219726562 494.35394287109375 C 655.8683471679688 495.88726806640625 655.635009765625 497.4639587402344 655.635009765625 499.0839538574219 C 655.635009765625 500.890625 655.89501953125 502.5839538574219 656.4150390625 504.1639404296875 C 656.9349975585938 505.74395751953125 657.6650390625 507.12060546875 658.6050415039062 508.2939453125 C 659.538330078125 509.4606018066406 660.6650390625 510.3839416503906 661.9850463867188 511.0639343261719 C 663.29833984375 511.74395751953125 664.74169921875 512.0839233398438 666.3150024414062 512.0839233398438 C 667.1683349609375 512.0839233398438 668.1150512695312 512.0139770507812 669.155029296875 511.87396240234375 L 669.155029296875 500.36395263671875 L 681.43505859375 498.98394775390625 L 681.43505859375 521.1639404296875 C 675.9083862304688 523.6173095703125 670.2216796875 524.8439331054688 664.375 524.8439331054688 C 657.5816650390625 524.8439331054688 651.7916870117188 522.323974609375 647.0050048828125 517.283935546875 C 642.2183837890625 512.2239379882812 639.8250122070312 506.1006164550781 639.8250122070312 498.9139404296875 C 639.8250122070312 491.90728759765625 642.2650146484375 485.96728515625 647.14501953125 481.09393310546875 C 651.9517211914062 476.2406005859375 657.6716918945312 473.81396484375 664.3050537109375 473.81396484375 C 670.3583374023438 473.81396484375 675.8350219726562 474.9906005859375 680.7350463867188 477.34393310546875 L 676.0250244140625 488.37396240234375 ZM 697.5817260742188 474.9239501953125 L 713.9417114257812 474.9239501953125 L 713.9417114257812 523.7339477539062 L 697.5817260742188 523.7339477539062 L 697.5817260742188 474.9239501953125 Z" transform="matrix(1, 0, 0, 1, -46.84273910522461, -210.48036193847656)" style="line-height: 100%; alignment-baseline: before-edge; white-space: pre;"/><style id="ee-google-fonts">@import url(https://fonts.googleapis.com/css?family=Ubuntu+Condensed:400);</style></defs>


<g transform="matrix(2.1730112001364197, 0, 0, 2.1730112001364197, 0.061317984634485664, -171.89261444601158)"><g transform="matrix(1, 0, 0, 1, 10.907272629997976, -171.19708251953125)"><g><g><use opacity="1" fill="url(#gradientaVSZK1UW4)" style="fill-opacity: 1; fill: rgb(14, 48, 110);" xlink:href="#i1s3tJaku0"/><g><use opacity="1" fill-opacity="0" stroke="#000000" stroke-width="1" stroke-opacity="0" xlink:href="#i1s3tJaku0"/></g></g><g><use opacity="1" fill="url(#gradientadoy0fTQ6)" xlink:href="#c8qMfSGNU7"/><g><use opacity="1" fill-opacity="0" stroke="#000000" stroke-width="1" stroke-opacity="0" style="fill-opacity: 1; fill: rgb(14, 48, 110);" xlink:href="#c8qMfSGNU7"/></g></g><g><use opacity="1" fill="url(#gradientd1XmYi32d)" style="fill-opacity: 1; fill: rgb(14, 48, 110);" xlink:href="#d9W5YWaMc"/><g><use opacity="1" fill-opacity="0" stroke="#000000" stroke-width="1" stroke-opacity="0" xlink:href="#d9W5YWaMc"/></g></g></g></g></g></svg>