<?xml version="1.0" encoding="utf-8"?>
<svg id="master-artboard" viewBox="0 0 1054.9307861328125 249.78712463378906" version="1.1" xmlns="http://www.w3.org/2000/svg" x="0px" y="0px" style="enable-background:new 0 0 1400 980;" width="1054.9307861328125px" height="249.78712463378906px" xmlns:xlink="http://www.w3.org/1999/xlink"><rect id="ee-background" x="0" y="0" width="1054.9307861328125" height="249.78712463378906" style="fill: white; fill-opacity: 0; pointer-events: none;"/><defs><path id="text-path-0" d="M 778.8464965820312 213.4612274169922 A 100 18 0 0 1 988.3533935546875 213.4612274169922 A 100 18 0 0 1 778.8464965820312 213.4612274169922 Z" style="fill: none; stroke: red; stroke-width: 2;"/><path id="text-path-1" d="M 664.5464477539062 37.96122741699219 A 100 19 0 0 1 876.5812377929688 37.96122741699219 A 100 19 0 0 1 664.5464477539062 37.96122741699219" style="fill: none; stroke: red; stroke-width: 2;"/><path id="text-path-2" d="M 765.3650512695312 211.70851135253906 A 100 17 0 0 1 991.5017700195312 211.70851135253906 A 100 17 0 0 1 765.3650512695312 211.70851135253906" style="fill: none; stroke: red; stroke-width: 2;"/><path id="path-1" d="M 765.3650512695312 211.70851135253906 A 100 17 0 0 1 991.5017700195312 211.70851135253906 A 100 17 0 0 1 765.3650512695312 211.70851135253906" style="fill: none; stroke: red; stroke-width: 2;"/><path d="M53.43 255.91C52.22 255.31 50.91 255.31 49.7 255.91C44.96 258.27 7.05 277.19 2.31 279.55C0.91 280.26 0 281.77 0 283.28C0 284.89 0.91 286.29 2.31 287C7.05 289.37 44.96 308.37 49.7 310.74C50.31 311.05 50.91 311.15 51.61 311.15C52.22 311.15 52.92 311.05 53.53 310.74C58.27 308.38 96.18 289.46 100.91 287.1C102.32 286.4 103.23 284.99 103.23 283.38C103.13 281.77 102.22 280.26 100.81 279.55C91.34 274.82 58.16 258.27 53.43 255.91ZM13.48 283.28L51.51 264.26L89.55 283.28L51.51 302.39L13.48 283.28Z" id="i1s3tJaku0"/><linearGradient id="gradientaVSZK1UW4" gradientUnits="userSpaceOnUse" x1="-14.74" y1="283.32" x2="660.58" y2="283.32"><stop style="stop-color: #da8cff;stop-opacity: 1" offset="0.1502404%"/><stop style="stop-color: #9a55ff;stop-opacity: 1" offset="100%"/></linearGradient><path d="M96.99 326.94C93.96 328.46 78.8 336.08 51.51 349.78C24.23 336.08 9.07 328.46 6.04 326.94C4.02 325.94 1.51 326.74 0.4 328.85C-0.6 330.87 0.2 333.38 2.31 334.49C7.05 336.85 44.96 355.77 49.7 358.13C50.31 358.43 50.91 358.53 51.61 358.53C52.22 358.53 52.92 358.43 53.53 358.13C58.27 355.77 96.18 336.85 100.91 334.49C102.83 333.38 103.63 330.87 102.63 328.85C101.62 326.84 99.1 325.94 96.99 326.94Z" id="c8qMfSGNU7"/><linearGradient id="gradientadoy0fTQ6" gradientUnits="userSpaceOnUse" x1="-14.74" y1="342.54" x2="660.58" y2="342.54"><stop style="stop-color: #da8cff;stop-opacity: 1" offset="0.1502404%"/><stop style="stop-color: #9a55ff;stop-opacity: 1" offset="100%"/></linearGradient><path d="M96.99 303.2C93.96 304.72 78.8 312.33 51.51 326.04C24.23 312.39 9.07 304.81 6.04 303.3C4.02 302.29 1.51 303.1 0.4 305.21C-0.6 307.22 0.2 309.74 2.31 310.84C7.05 313.21 44.96 332.12 49.7 334.49C50.31 334.79 50.91 334.89 51.61 334.89C52.22 334.89 52.92 334.79 53.53 334.49C58.25 332.11 96.09 313.12 100.81 310.74C102.83 309.74 103.63 307.22 102.63 305.11C101.62 303.1 99.1 302.19 96.99 303.2Z" id="d9W5YWaMc"/><linearGradient id="gradientd1XmYi32d" gradientUnits="userSpaceOnUse" x1="-14.74" y1="318.86" x2="660.58" y2="318.86" gradientTransform="matrix(0.792198056049313, -0.0027342066356834207, 0.003451422367779138, 0.9999941062836873, -4.163543779906643, -0.03844458155418329)"><stop style="stop-color: #da8cff;stop-opacity: 1" offset="0.1502404%"/><stop style="stop-color: #9a55ff;stop-opacity: 1" offset="100%"/></linearGradient><path d="M 246 512.0139770507812 C 248.6599884033203 512.0139770507812 250.67666625976562 511.2939453125 252.04998779296875 509.85394287109375 C 253.42999267578125 508.40728759765625 254.1199951171875 506.283935546875 254.1199951171875 503.48394775390625 L 254.1199951171875 474.9239501953125 L 270.1300048828125 474.9239501953125 L 270.1300048828125 503.48394775390625 C 270.1300048828125 505.98394775390625 269.79998779296875 508.24395751953125 269.1399841308594 510.2639465332031 C 268.4866638183594 512.283935546875 267.586669921875 514.0872802734375 266.44000244140625 515.6739501953125 C 265.2933349609375 517.2539672851562 263.9466552734375 518.6239624023438 262.3999938964844 519.783935546875 C 260.85333251953125 520.937255859375 259.1833190917969 521.890625 257.3899841308594 522.6439208984375 C 255.60333251953125 523.390625 253.73666381835938 523.9439697265625 251.7899932861328 524.303955078125 C 249.84999084472656 524.6639404296875 247.9199981689453 524.8439331054688 246 524.8439331054688 C 239.413330078125 524.8439331054688 233.8333282470703 523.0405883789062 229.25999450683594 519.4339599609375 C 224.3333282470703 515.6005859375 221.8699951171875 510.283935546875 221.8699951171875 503.48394775390625 L 221.8699951171875 474.9239501953125 L 237.88998413085938 474.9239501953125 L 237.88998413085938 503.48394775390625 C 237.88998413085938 509.1706237792969 240.59332275390625 512.0139770507812 246 512.0139770507812 ZM 273.5951843261719 474.9239501953125 L 290.0251770019531 474.9239501953125 L 290.0251770019531 494.8239440917969 L 295.1551818847656 494.8239440917969 L 304.585205078125 474.9239501953125 L 321.01519775390625 474.9239501953125 L 321.01519775390625 478.11395263671875 L 309.7851867675781 499.12396240234375 L 322.61517333984375 520.5439453125 L 322.61517333984375 523.7339477539062 L 305.3451843261719 523.7339477539062 L 294.87518310546875 504.3239440917969 L 290.0251770019531 504.3239440917969 L 290.0251770019531 523.7339477539062 L 273.5951843261719 523.7339477539062 L 273.5951843261719 474.9239501953125 ZM 328.8118896484375 474.9239501953125 L 343.5718994140625 474.9239501953125 L 355.7818908691406 498.6339416503906 L 367.701904296875 474.9239501953125 L 382.4718933105469 474.9239501953125 L 382.4718933105469 523.7339477539062 L 367.701904296875 523.7339477539062 L 367.701904296875 497.6639404296875 L 358.69189453125 514.7239379882812 L 352.6618957519531 514.7239379882812 L 343.5718994140625 497.6639404296875 L 343.5718994140625 523.7339477539062 L 328.8118896484375 523.7339477539062 L 328.8118896484375 474.9239501953125 ZM 421.11065673828125 485.2539367675781 L 410.9906311035156 485.2539367675781 L 410.9906311035156 474.9239501953125 L 447.8106384277344 474.9239501953125 L 447.8106384277344 485.2539367675781 L 437.6806335449219 485.2539367675781 L 437.6806335449219 523.7339477539062 L 421.11065673828125 523.7339477539062 L 421.11065673828125 485.2539367675781 ZM 504.4090270996094 523.5939331054688 C 501.3823547363281 524.4273071289062 499.19903564453125 524.8439331054688 497.8590393066406 524.8439331054688 C 489.28570556640625 524.8439331054688 483.9023742675781 520.937255859375 481.70904541015625 513.1239624023438 L 479.759033203125 505.22393798828125 L 476.43902587890625 505.22393798828125 L 476.43902587890625 523.7339477539062 L 460.9090270996094 523.7339477539062 L 460.9090270996094 474.9239501953125 L 482.6090393066406 474.9239501953125 C 485.4290466308594 474.9239501953125 488.0757141113281 475.2406005859375 490.5490417480469 475.87396240234375 C 493.0223693847656 476.5072937011719 495.1756896972656 477.43060302734375 497.009033203125 478.6439514160156 C 498.8490295410156 479.8572692871094 500.29571533203125 481.35394287109375 501.3490295410156 483.1339416503906 C 502.39569091796875 484.9139404296875 502.9190368652344 486.9606018066406 502.9190368652344 489.2739562988281 C 502.9190368652344 490.9872741699219 502.7056884765625 492.51727294921875 502.2790222167969 493.86395263671875 C 501.85235595703125 495.21728515625 501.2356872558594 496.43060302734375 500.42901611328125 497.5039367675781 C 499.6156921386719 498.5839538574219 498.6257019042969 499.53729248046875 497.45904541015625 500.36395263671875 C 496.2923583984375 501.197265625 494.9690246582031 501.9372863769531 493.4890441894531 502.5839538574219 L 493.80902099609375 504.283935546875 C 493.8757019042969 504.6772766113281 493.9423828125 505.0139465332031 494.009033203125 505.2939453125 C 494.0823669433594 505.5672912597656 494.1423645019531 505.7972717285156 494.18902587890625 505.98394775390625 L 494.56903076171875 507.47393798828125 C 494.8423767089844 508.35394287109375 495.1590270996094 509.1006164550781 495.51904296875 509.7139587402344 C 495.8790283203125 510.3272705078125 496.335693359375 510.8239440917969 496.8890380859375 511.2039489746094 C 497.4423828125 511.5839538574219 498.1290283203125 511.8606262207031 498.94903564453125 512.033935546875 C 499.76904296875 512.207275390625 500.76904296875 512.2939453125 501.94903564453125 512.2939453125 C 502.1357116699219 512.2939453125 502.432373046875 512.2706298828125 502.83905029296875 512.2239379882812 C 503.2390441894531 512.1773071289062 503.7623596191406 512.1072998046875 504.4090270996094 512.0139770507812 L 504.4090270996094 523.5939331054688 M 488.70904541015625 489.9639587402344 C 488.70904541015625 489.06396484375 488.51904296875 488.32061767578125 488.1390380859375 487.73394775390625 C 487.759033203125 487.140625 487.23236083984375 486.6772766113281 486.55902099609375 486.34393310546875 C 485.8857116699219 486.0106201171875 485.0990295410156 485.7806091308594 484.19903564453125 485.6539306640625 C 483.2990417480469 485.52728271484375 482.32904052734375 485.4639587402344 481.2890319824219 485.4639587402344 L 476.43902587890625 485.4639587402344 L 476.43902587890625 495.23394775390625 L 479.1390380859375 495.23394775390625 L 481.4290466308594 495.1339416503906 C 482.32904052734375 495.06060791015625 483.2123718261719 494.9372863769531 484.07904052734375 494.7639465332031 C 484.9457092285156 494.5906066894531 485.7257080078125 494.3139343261719 486.4190368652344 493.9339599609375 C 487.11236572265625 493.553955078125 487.6690368652344 493.0472717285156 488.0890197753906 492.4139404296875 C 488.50238037109375 491.7739562988281 488.70904541015625 490.957275390625 488.70904541015625 489.9639587402344 ZM 512.1742553710938 474.9239501953125 L 528.5342407226562 474.9239501953125 L 528.5342407226562 523.7339477539062 L 512.1742553710938 523.7339477539062 L 512.1742553710938 474.9239501953125 ZM 539.7999267578125 474.9239501953125 L 555.119873046875 474.9239501953125 L 555.119873046875 513.2639770507812 L 572.0399169921875 513.2639770507812 L 572.0399169921875 523.7339477539062 L 539.7999267578125 523.7339477539062 L 539.7999267578125 474.9239501953125 ZM 584.71826171875 499.3939514160156 C 584.71826171875 492.3472900390625 586.9583129882812 486.40728759765625 591.4382934570312 481.5739440917969 C 596.2249755859375 476.4206237792969 602.6983032226562 473.84393310546875 610.8582763671875 473.84393310546875 C 614.8316040039062 473.84393310546875 618.4249267578125 474.4872741699219 621.6383056640625 475.7739562988281 C 624.8516235351562 477.053955078125 627.5916137695312 478.8272705078125 629.8582763671875 481.09393310546875 C 632.1182861328125 483.3606262207031 633.8616333007812 486.0572814941406 635.0883178710938 489.1839599609375 C 636.31494140625 492.3172912597656 636.9282836914062 495.7206115722656 636.9282836914062 499.3939514160156 C 636.9282836914062 501.61395263671875 636.6749267578125 503.78729248046875 636.1682739257812 505.9139404296875 C 635.6549682617188 508.0406188964844 634.8983154296875 510.0472717285156 633.8983154296875 511.9339599609375 C 632.8916015625 513.81396484375 631.6483154296875 515.5473022460938 630.1682739257812 517.1339721679688 C 628.6882934570312 518.7139282226562 626.9816284179688 520.0772705078125 625.0482788085938 521.2239379882812 C 623.1216430664062 522.3639526367188 620.9749755859375 523.2539672851562 618.6082763671875 523.8939208984375 C 616.2349853515625 524.5272827148438 613.651611328125 524.8439331054688 610.8582763671875 524.8439331054688 C 607.9916381835938 524.8439331054688 605.3616333007812 524.5206298828125 602.96826171875 523.8739624023438 C 600.574951171875 523.227294921875 598.4082641601562 522.323974609375 596.46826171875 521.1639404296875 C 594.5283203125 520.0106201171875 592.824951171875 518.6372680664062 591.3582763671875 517.0439453125 C 589.8916015625 515.4506225585938 588.6649780273438 513.7106323242188 587.6782836914062 511.8239440917969 C 586.6983032226562 509.9439392089844 585.9583129882812 507.95062255859375 585.4583129882812 505.84393310546875 C 584.9649658203125 503.74395751953125 584.71826171875 501.59393310546875 584.71826171875 499.3939514160156 M 610.8582763671875 511.9439392089844 C 612.6849365234375 511.9439392089844 614.23828125 511.5572814941406 615.518310546875 510.783935546875 C 616.804931640625 510.0106201171875 617.8582763671875 509.01727294921875 618.6782836914062 507.803955078125 C 619.498291015625 506.5906066894531 620.0982666015625 505.23394775390625 620.478271484375 503.73394775390625 C 620.8582763671875 502.227294921875 621.0482788085938 500.7572937011719 621.0482788085938 499.3239440917969 C 621.0482788085938 497.457275390625 620.8116455078125 495.74395751953125 620.3383178710938 494.1839599609375 C 619.8649291992188 492.62396240234375 619.181640625 491.2706298828125 618.2882690429688 490.12396240234375 C 617.401611328125 488.977294921875 616.3283081054688 488.07061767578125 615.0682983398438 487.4039306640625 C 613.8082885742188 486.7306213378906 612.4049682617188 486.3606262207031 610.8582763671875 486.2939453125 C 609.0049438476562 486.3406066894531 607.431640625 486.7572937011719 606.1383056640625 487.5439453125 C 604.844970703125 488.33062744140625 603.7882690429688 489.3406066894531 602.96826171875 490.5739440917969 C 602.1483154296875 491.8072814941406 601.5482788085938 493.1939392089844 601.1682739257812 494.73394775390625 C 600.7882690429688 496.2739562988281 600.5982666015625 497.803955078125 600.5982666015625 499.3239440917969 C 600.5982666015625 501.130615234375 600.8349609375 502.8006286621094 601.3082885742188 504.3339538574219 C 601.7816162109375 505.87396240234375 602.4616088867188 507.2039489746094 603.3482666015625 508.3239440917969 C 604.2416381835938 509.4439392089844 605.3216552734375 510.3272705078125 606.5883178710938 510.97393798828125 C 607.8616333007812 511.62060546875 609.2849731445312 511.9439392089844 610.8582763671875 511.9439392089844 ZM 676.0250244140625 488.37396240234375 C 671.9116821289062 487.033935546875 668.675048828125 486.36395263671875 666.3150024414062 486.36395263671875 C 664.5816650390625 486.36395263671875 663.0516967773438 486.7206115722656 661.7250366210938 487.4339599609375 C 660.3917236328125 488.1539306640625 659.2750244140625 489.10394287109375 658.375 490.283935546875 C 657.4750366210938 491.457275390625 656.7950439453125 492.8139343261719 656.3350219726562 494.35394287109375 C 655.8683471679688 495.88726806640625 655.635009765625 497.4639587402344 655.635009765625 499.0839538574219 C 655.635009765625 500.890625 655.89501953125 502.5839538574219 656.4150390625 504.1639404296875 C 656.9349975585938 505.74395751953125 657.6650390625 507.12060546875 658.6050415039062 508.2939453125 C 659.538330078125 509.4606018066406 660.6650390625 510.3839416503906 661.9850463867188 511.0639343261719 C 663.29833984375 511.74395751953125 664.74169921875 512.0839233398438 666.3150024414062 512.0839233398438 C 667.1683349609375 512.0839233398438 668.1150512695312 512.0139770507812 669.155029296875 511.87396240234375 L 669.155029296875 500.36395263671875 L 681.43505859375 498.98394775390625 L 681.43505859375 521.1639404296875 C 675.9083862304688 523.6173095703125 670.2216796875 524.8439331054688 664.375 524.8439331054688 C 657.5816650390625 524.8439331054688 651.7916870117188 522.323974609375 647.0050048828125 517.283935546875 C 642.2183837890625 512.2239379882812 639.8250122070312 506.1006164550781 639.8250122070312 498.9139404296875 C 639.8250122070312 491.90728759765625 642.2650146484375 485.96728515625 647.14501953125 481.09393310546875 C 651.9517211914062 476.2406005859375 657.6716918945312 473.81396484375 664.3050537109375 473.81396484375 C 670.3583374023438 473.81396484375 675.8350219726562 474.9906005859375 680.7350463867188 477.34393310546875 L 676.0250244140625 488.37396240234375 ZM 697.5817260742188 474.9239501953125 L 713.9417114257812 474.9239501953125 L 713.9417114257812 523.7339477539062 L 697.5817260742188 523.7339477539062 L 697.5817260742188 474.9239501953125 Z" transform="matrix(1, 0, 0, 1, -46.84273910522461, -210.48036193847656)" style="line-height: 100%; alignment-baseline: before-edge; white-space: pre;"/><style id="ee-google-fonts">@import url(https://fonts.googleapis.com/css?family=Ubuntu+Condensed:400);</style></defs>


<path d="M 880.3870239257812 239.90606689453125" style="fill: rgb(63, 61, 61); fill-opacity: 1; stroke: rgb(0, 0, 0); stroke-opacity: 1; stroke-width: 0; paint-order: fill;" transform="matrix(1, 0, 0, 1, -40.0595703125, -88.40740966796875)"/><path d="M 864.144775390625 229.48651123046875" style="fill: rgb(63, 61, 61); fill-opacity: 1; stroke: rgb(0, 0, 0); stroke-opacity: 1; stroke-width: 0; paint-order: fill;" transform="matrix(1, 0, 0, 1, -40.0595703125, -88.40740966796875)"/><g transform="matrix(2.1730112001364197, 0, 0, 2.1730112001364197, 0.061317984634485664, -171.89261444601158)"><g transform="matrix(1, 0, 0, 1, 15.523484548741749, -171.19708517376299)"><g><g><use opacity="1" fill="url(#gradientaVSZK1UW4)" style="fill-opacity: 1; fill: rgb(14, 48, 110);" xlink:href="#i1s3tJaku0"/><g><use opacity="1" fill-opacity="0" stroke="#000000" stroke-width="1" stroke-opacity="0" xlink:href="#i1s3tJaku0"/></g></g><g><use opacity="1" fill="url(#gradientadoy0fTQ6)" xlink:href="#c8qMfSGNU7"/><g><use opacity="1" fill-opacity="0" stroke="#000000" stroke-width="1" stroke-opacity="0" style="fill-opacity: 1; fill: rgb(14, 48, 110);" xlink:href="#c8qMfSGNU7"/></g></g><g><use opacity="1" fill="url(#gradientd1XmYi32d)" style="fill-opacity: 1; fill: rgb(14, 48, 110);" xlink:href="#d9W5YWaMc"/><g><use opacity="1" fill-opacity="0" stroke="#000000" stroke-width="1" stroke-opacity="0" xlink:href="#d9W5YWaMc"/></g></g></g></g><path d="M 235.25025939941406 363.7961120605469 C 231.08358764648438 363.7961120605469 227.9602508544922 362.6127624511719 225.8802490234375 360.2461242675781 C 223.80026245117188 357.8861083984375 222.76025390625 354.1494445800781 222.76025390625 349.0361022949219 L 222.76025390625 318.1761169433594 L 228.55026245117188 318.1761169433594 L 228.55026245117188 348.526123046875 C 228.55026245117188 351.91943359375 229.0469207763672 354.4627685546875 230.04025268554688 356.1560974121094 C 231.02691650390625 357.8561096191406 232.80691528320312 358.70611572265625 235.3802490234375 358.70611572265625 C 238.0469207763672 358.70611572265625 239.86358642578125 357.83612060546875 240.83026123046875 356.0960998535156 C 241.7969207763672 354.3561096191406 242.28025817871094 351.832763671875 242.28025817871094 348.526123046875 L 242.28025817871094 318.1761169433594 L 248.07025146484375 318.1761169433594 L 248.07025146484375 349.0361022949219 C 248.07025146484375 354.0627746582031 246.99691772460938 357.7794494628906 244.85025024414062 360.18609619140625 C 242.70358276367188 362.5927734375 239.5035858154297 363.7961120605469 235.25025939941406 363.7961120605469 ZM 284.0169372558594 318.1761169433594 C 283.0769348144531 319.6361083984375 282.0169372558594 321.24609375 280.8369140625 323.006103515625 C 279.6502685546875 324.77276611328125 278.4369201660156 326.5894470214844 277.1969299316406 328.45611572265625 C 275.95025634765625 330.3227844238281 274.693603515625 332.1594543457031 273.4269104003906 333.96612548828125 C 272.1602478027344 335.76611328125 270.9469299316406 337.439453125 269.78692626953125 338.9861145019531 C 271.0735778808594 340.27276611328125 272.4669189453125 341.8961181640625 273.9669189453125 343.8561096191406 C 275.4736022949219 345.8094482421875 276.9569091796875 347.86944580078125 278.41693115234375 350.0361022949219 C 279.8769226074219 352.2027893066406 281.250244140625 354.4060974121094 282.53692626953125 356.6461181640625 C 283.83026123046875 358.87945556640625 284.86358642578125 360.939453125 285.6369323730469 362.82611083984375 L 279.1269226074219 362.82611083984375 C 278.2269287109375 360.852783203125 277.18359375 358.832763671875 275.9969177246094 356.76611328125 C 274.8169250488281 354.70611572265625 273.5735778808594 352.7194519042969 272.2669372558594 350.8061218261719 C 270.9535827636719 348.8994445800781 269.6202697753906 347.12945556640625 268.2669372558594 345.4961242675781 C 266.9136047363281 343.86279296875 265.5935974121094 342.48944091796875 264.3069152832031 341.3760986328125 L 264.3069152832031 362.82611083984375 L 258.5069274902344 362.82611083984375 L 258.5069274902344 318.1761169433594 L 264.3069152832031 318.1761169433594 L 264.3069152832031 337.8961181640625 C 265.4269104003906 336.4761047363281 266.60693359375 334.86279296875 267.846923828125 333.0561218261719 C 269.0935974121094 331.256103515625 270.33026123046875 329.4527893066406 271.5569152832031 327.6461181640625 C 272.77691650390625 325.8460998535156 273.9269104003906 324.11944580078125 275.0069274902344 322.46612548828125 C 276.08026123046875 320.8127746582031 276.9802551269531 319.3827819824219 277.7069091796875 318.1761169433594 L 284.0169372558594 318.1761169433594 ZM 307.2132873535156 356.6461181640625 C 306.353271484375 353.5527648925781 305.4732971191406 350.58612060546875 304.5732727050781 347.7461242675781 C 303.6666259765625 344.91278076171875 302.796630859375 342.23944091796875 301.9632873535156 339.7261047363281 C 301.123291015625 337.2127685546875 300.3166198730469 334.9261169433594 299.54327392578125 332.8661193847656 C 298.76995849609375 330.8061218261719 298.06329345703125 329.0027770996094 297.42327880859375 327.45611572265625 C 297.24993896484375 329.90277099609375 297.1099548339844 332.5994567871094 297.0032958984375 335.5461120605469 C 296.8966064453125 338.4861145019531 296.78662109375 341.5027770996094 296.67327880859375 344.5960998535156 C 296.5666198730469 347.689453125 296.4832763671875 350.79278564453125 296.42327880859375 353.9060974121094 C 296.35662841796875 357.0194396972656 296.30328369140625 359.9927673339844 296.2632751464844 362.82611083984375 L 290.7232971191406 362.82611083984375 C 290.8499450683594 358.9594421386719 290.97662353515625 355.0627746582031 291.103271484375 351.1361083984375 C 291.23663330078125 347.2027893066406 291.39996337890625 343.33612060546875 291.5932922363281 339.5361022949219 C 291.78662109375 335.7361145019531 291.99993896484375 332.03277587890625 292.2332763671875 328.4261169433594 C 292.46661376953125 324.8127746582031 292.7332763671875 321.3961181640625 293.0332946777344 318.1761169433594 L 298.7732849121094 318.1761169433594 C 299.546630859375 320.02276611328125 300.4266052246094 322.2261047363281 301.4132995605469 324.7861022949219 C 302.39996337890625 327.3394470214844 303.39996337890625 330.0127868652344 304.41326904296875 332.8061218261719 C 305.4199523925781 335.5927734375 306.3966064453125 338.3827819824219 307.3432922363281 341.1761169433594 C 308.2832946777344 343.9694519042969 309.0999450683594 346.526123046875 309.79327392578125 348.8460998535156 C 310.4799499511719 346.526123046875 311.2732849121094 343.9694519042969 312.17327880859375 341.1761169433594 C 313.0732727050781 338.3827819824219 314.0166320800781 335.5927734375 315.0032958984375 332.8061218261719 C 315.9966125488281 330.0127868652344 316.97662353515625 327.3394470214844 317.94329833984375 324.7861022949219 C 318.9099426269531 322.2261047363281 319.77996826171875 320.02276611328125 320.55328369140625 318.1761169433594 L 326.2832946777344 318.1761169433594 C 326.5832824707031 321.3961181640625 326.8499450683594 324.8127746582031 327.0832824707031 328.4261169433594 C 327.3232727050781 332.03277587890625 327.5399475097656 335.7361145019531 327.7332763671875 339.5361022949219 C 327.9266052246094 343.33612060546875 328.08660888671875 347.2027893066406 328.2132873535156 351.1361083984375 C 328.34661865234375 355.0627746582031 328.47662353515625 358.9594421386719 328.603271484375 362.82611083984375 L 323.06329345703125 362.82611083984375 C 322.97662353515625 359.9927673339844 322.89996337890625 357.006103515625 322.8332824707031 353.8661193847656 C 322.7732849121094 350.7327880859375 322.6866149902344 347.5894470214844 322.5732727050781 344.43609619140625 C 322.46661376953125 341.276123046875 322.3499450683594 338.2027893066406 322.2232971191406 335.21612548828125 C 322.09661865234375 332.2361145019531 321.9466247558594 329.49945068359375 321.7732849121094 327.006103515625 C 321.3866271972656 328.0794372558594 320.9032897949219 329.42279052734375 320.3232727050781 331.0361022949219 C 319.7432861328125 332.6427917480469 319.1432800292969 334.3927917480469 318.5232849121094 336.2861022949219 C 317.8966064453125 338.17279052734375 317.24993896484375 340.1161193847656 316.5832824707031 342.1161193847656 C 315.9166259765625 344.10943603515625 315.29327392578125 346.0294494628906 314.7132873535156 347.8760986328125 C 314.13330078125 349.7227783203125 313.6199645996094 351.4094543457031 313.17327880859375 352.93609619140625 C 312.7199401855469 354.4627685546875 312.3666076660156 355.6994323730469 312.11328125 356.6461181640625 L 307.2132873535156 356.6461181640625 ZM 372.1442565917969 318.1761169433594 L 372.1442565917969 323.1361083984375 L 362.2242431640625 323.1361083984375 L 362.2242431640625 362.82611083984375 L 356.42425537109375 362.82611083984375 L 356.42425537109375 323.1361083984375 L 346.5042419433594 323.1361083984375 L 346.5042419433594 318.1761169433594 L 372.1442565917969 318.1761169433594 ZM 378.45721435546875 318.82611083984375 C 381.4638671875 318.0927734375 384.3638916015625 317.7261047363281 387.1571960449219 317.7261047363281 C 389.3905334472656 317.7261047363281 391.4105529785156 317.9827880859375 393.21722412109375 318.49609375 C 395.0172119140625 319.01611328125 396.560546875 319.832763671875 397.8471984863281 320.94610595703125 C 399.1405334472656 322.06610107421875 400.1405334472656 323.506103515625 400.8471984863281 325.26611328125 C 401.5538635253906 327.026123046875 401.9072265625 329.15277099609375 401.9072265625 331.6461181640625 C 401.9072265625 334.73944091796875 401.31719970703125 337.23944091796875 400.13720703125 339.1461181640625 C 398.95721435546875 341.0594482421875 397.3572082519531 342.5094299316406 395.33721923828125 343.4961242675781 C 395.8505554199219 344.3561096191406 396.5072021484375 345.526123046875 397.3072204589844 347.006103515625 C 398.1005554199219 348.4927673339844 398.91387939453125 350.1260986328125 399.7472229003906 351.9060974121094 C 400.58721923828125 353.68609619140625 401.40386962890625 355.52276611328125 402.19720458984375 357.4161071777344 C 402.99053955078125 359.3027648925781 403.6672058105469 361.1061096191406 404.2272033691406 362.82611083984375 L 398.4272155761719 362.82611083984375 C 397.9605407714844 361.5394592285156 397.37054443359375 360.0794372558594 396.6572265625 358.44610595703125 C 395.9505310058594 356.8127746582031 395.2105407714844 355.189453125 394.43719482421875 353.57611083984375 C 393.66387939453125 351.9694519042969 392.8905334472656 350.4261169433594 392.1172180175781 348.94610595703125 C 391.3438720703125 347.4594421386719 390.6572265625 346.2027893066406 390.0572204589844 345.1761169433594 C 389.37054443359375 345.2627868652344 388.6605529785156 345.32611083984375 387.9272155761719 345.3661193847656 C 387.2005310058594 345.4060974121094 386.4705505371094 345.4261169433594 385.7372131347656 345.4261169433594 L 384.127197265625 345.4261169433594 L 384.127197265625 362.82611083984375 L 378.45721435546875 362.82611083984375 L 378.45721435546875 318.82611083984375 M 384.127197265625 340.6661071777344 L 386.57720947265625 340.6661071777344 C 389.54388427734375 340.6661071777344 391.820556640625 339.98944091796875 393.4072265625 338.6361083984375 C 394.9938659667969 337.28277587890625 395.7872009277344 334.9527893066406 395.7872009277344 331.6461181640625 C 395.7872009277344 329.96612548828125 395.5838623046875 328.5594482421875 395.1772155761719 327.4261169433594 C 394.7705383300781 326.2861022949219 394.1905517578125 325.3827819824219 393.43719482421875 324.71612548828125 C 392.6838684082031 324.0494384765625 391.78387451171875 323.56610107421875 390.7372131347656 323.26611328125 C 389.6838684082031 322.96612548828125 388.51055908203125 322.81610107421875 387.21722412109375 322.81610107421875 C 386.1038818359375 322.81610107421875 385.0738830566406 322.87945556640625 384.127197265625 323.006103515625 L 384.127197265625 340.6661071777344 ZM 411.5691833496094 318.1761169433594 L 417.3691711425781 318.1761169433594 L 417.3691711425781 362.82611083984375 L 411.5691833496094 362.82611083984375 L 411.5691833496094 318.1761169433594 ZM 448.0995788574219 357.8661193847656 L 448.0995788574219 362.82611083984375 L 428.1895751953125 362.82611083984375 L 428.1895751953125 318.1761169433594 L 433.98956298828125 318.1761169433594 L 433.98956298828125 357.8661193847656 L 448.0995788574219 357.8661193847656 ZM 482.758056640625 340.5361022949219 C 482.758056640625 344.01611328125 482.44805908203125 347.1827697753906 481.82806396484375 350.0361022949219 C 481.2013854980469 352.8961181640625 480.2347412109375 355.3460998535156 478.9280700683594 357.3861083984375 C 477.6147155761719 359.4261169433594 475.9613952636719 361.0027770996094 473.9680480957031 362.1161193847656 C 471.9680480957031 363.2361145019531 469.6147155761719 363.7961120605469 466.9080505371094 363.7961120605469 C 464.2013854980469 363.7961120605469 461.85137939453125 363.2361145019531 459.8580627441406 362.1161193847656 C 457.8580627441406 361.0027770996094 456.2047424316406 359.4261169433594 454.8980712890625 357.3861083984375 C 453.584716796875 355.3460998535156 452.604736328125 352.8961181640625 451.95806884765625 350.0361022949219 C 451.31805419921875 347.1827697753906 450.998046875 344.01611328125 450.998046875 340.5361022949219 C 450.998046875 337.0561218261719 451.31805419921875 333.8760986328125 451.95806884765625 330.9961242675781 C 452.604736328125 328.1227722167969 453.584716796875 325.6661071777344 454.8980712890625 323.6260986328125 C 456.2047424316406 321.58612060546875 457.8580627441406 319.99609375 459.8580627441406 318.8561096191406 C 461.85137939453125 317.71612548828125 464.2013854980469 317.1461181640625 466.9080505371094 317.1461181640625 C 469.6147155761719 317.1461181640625 471.9680480957031 317.71612548828125 473.9680480957031 318.8561096191406 C 475.9613952636719 319.99609375 477.6147155761719 321.58612060546875 478.9280700683594 323.6260986328125 C 480.2347412109375 325.6661071777344 481.2013854980469 328.1227722167969 481.82806396484375 330.9961242675781 C 482.44805908203125 333.8760986328125 482.758056640625 337.0561218261719 482.758056640625 340.5361022949219 M 476.57806396484375 340.5361022949219 C 476.57806396484375 337.8294372558594 476.40472412109375 335.35943603515625 476.0580749511719 333.1260986328125 C 475.7113952636719 330.8927917480469 475.1513977050781 328.9694519042969 474.3780517578125 327.3561096191406 C 473.61138916015625 325.74945068359375 472.6147155761719 324.4927673339844 471.3880615234375 323.58612060546875 C 470.1614074707031 322.68609619140625 468.6680603027344 322.2361145019531 466.9080505371094 322.2361145019531 C 465.1480712890625 322.2361145019531 463.65472412109375 322.68609619140625 462.4280700683594 323.58612060546875 C 461.20806884765625 324.4927673339844 460.2113952636719 325.74945068359375 459.43804931640625 327.3561096191406 C 458.66473388671875 328.9694519042969 458.0947265625 330.8927917480469 457.7280578613281 333.1260986328125 C 457.36138916015625 335.35943603515625 457.1780700683594 337.8294372558594 457.1780700683594 340.5361022949219 C 457.1780700683594 343.2427673339844 457.36138916015625 345.7127685546875 457.7280578613281 347.94610595703125 C 458.0947265625 350.179443359375 458.66473388671875 352.0894470214844 459.43804931640625 353.6761169433594 C 460.2113952636719 355.2694396972656 461.20806884765625 356.506103515625 462.4280700683594 357.3861083984375 C 463.65472412109375 358.26611328125 465.1480712890625 358.70611572265625 466.9080505371094 358.70611572265625 C 468.6680603027344 358.70611572265625 470.1614074707031 358.26611328125 471.3880615234375 357.3861083984375 C 472.6147155761719 356.506103515625 473.61138916015625 355.2694396972656 474.3780517578125 353.6761169433594 C 475.1513977050781 352.0894470214844 475.7113952636719 350.179443359375 476.0580749511719 347.94610595703125 C 476.40472412109375 345.7127685546875 476.57806396484375 343.2427673339844 476.57806396484375 340.5361022949219 ZM 489.90228271484375 340.46612548828125 C 489.90228271484375 336.2594299316406 490.2889404296875 332.67279052734375 491.0622863769531 329.70611572265625 C 491.8356018066406 326.74609375 492.9422607421875 324.332763671875 494.38226318359375 322.46612548828125 C 495.822265625 320.5927734375 497.5622863769531 319.23944091796875 499.6022644042969 318.4061279296875 C 501.64227294921875 317.56610107421875 503.928955078125 317.1461181640625 506.4622802734375 317.1461181640625 C 508.3955993652344 317.1461181640625 510.1556091308594 317.4161071777344 511.7422790527344 317.95611572265625 C 513.3356323242188 318.48944091796875 514.6256103515625 319.0994567871094 515.6123046875 319.7861022949219 L 513.812255859375 324.6161193847656 C 512.8189697265625 323.929443359375 511.7422790527344 323.36279296875 510.582275390625 322.9161071777344 C 509.4222717285156 322.4627685546875 508.09228515625 322.2361145019531 506.59228515625 322.2361145019531 C 502.8522644042969 322.2361145019531 500.1689453125 323.74945068359375 498.5422668457031 326.776123046875 C 496.908935546875 329.8094482421875 496.09228515625 334.3727722167969 496.09228515625 340.46612548828125 C 496.09228515625 343.7327880859375 496.33892822265625 346.526123046875 496.832275390625 348.8460998535156 C 497.32562255859375 351.1661071777344 498.02227783203125 353.0561218261719 498.9222717285156 354.51611328125 C 499.8289489746094 355.9761047363281 500.92559814453125 357.0494384765625 502.2122802734375 357.7361145019531 C 503.4989318847656 358.42279052734375 504.9389343261719 358.76611328125 506.53228759765625 358.76611328125 C 507.85894775390625 358.76611328125 508.99560546875 358.6161193847656 509.9422607421875 358.31610107421875 L 509.9422607421875 340.8561096191406 L 515.7422485351562 340.8561096191406 L 515.7422485351562 361.8561096191406 C 514.582275390625 362.4161071777344 513.1422729492188 362.8894348144531 511.4222717285156 363.276123046875 C 509.7022705078125 363.66278076171875 507.89892578125 363.8561096191406 506.01226806640625 363.8561096191406 C 503.6922607421875 363.8561096191406 501.54559326171875 363.3961181640625 499.572265625 362.4761047363281 C 497.59228515625 361.5494384765625 495.8856201171875 360.12945556640625 494.4522705078125 358.21612548828125 C 493.01226806640625 356.3094482421875 491.8955993652344 353.8827819824219 491.1022644042969 350.93609619140625 C 490.3022766113281 347.9961242675781 489.90228271484375 344.506103515625 489.90228271484375 340.46612548828125 ZM 525.5928344726562 318.1761169433594 L 531.3928833007812 318.1761169433594 L 531.3928833007812 362.82611083984375 L 525.5928344726562 362.82611083984375 L 525.5928344726562 318.1761169433594 Z" transform="matrix(1, 0, 0, 1, -74.78263092041016, -205.88304138183594)" style="fill: rgb(14, 48, 110); white-space: pre; color: rgb(51, 51, 51);"/></g></svg>